<?xml version="1.0" encoding="utf-8"?>
<!-- Generator: Adobe Illustrator 28.2.0, SVG Export Plug-In . SVG Version: 6.00 Build 0)  -->
<svg version="1.1" id="Lag_1_copy" xmlns="http://www.w3.org/2000/svg" xmlns:xlink="http://www.w3.org/1999/xlink" x="0px" y="0px"
	 viewBox="0 0 377.7 257.2" style="enable-background:new 0 0 377.7 257.2;" xml:space="preserve">
<style type="text/css">
	.st0{fill-rule:evenodd;clip-rule:evenodd;fill:#EE322E;}
	.st1{fill:#FFFFFF;}
	.st2{fill:none;stroke:#231F20;stroke-width:3;stroke-miterlimit:10;}
</style>
<path class="st0" d="M1.6,233.1L1.5,123.5h21.6l0.2,91.9l-10.7,37.9L1.6,233.1z M48.1,177.8l0.3,56.5H30.7l0-110.7H51l0.3,1.1
	c4.8,16.1,11.6,38.2,15.4,50.1v-52.1h21l0.6,93L77.2,252L48.1,177.8z M278.9,177.8l0.3,56.5h-17.7l0-110.7h20.3l0.3,1.1
	c4.8,16.1,11.6,38.2,15.4,50.1v-52.1h21l0.6,93L308,252L278.9,177.8z M356.6,234.3c-1.3,0-2.7,0-4.2,0c-1.6,0-3.4,0-5.3,0
	c-1,0-2,0-3,0c-0.2,0-0.4,0-0.6,0c-3.3,0-8.1-0.4-11.8-4.3c-4.3-4.5-6-12.5-5.4-24.4c0.5-8.6,0.3-26.7,0.2-41.2
	c-0.1-7.7-0.1-14.3-0.1-18.7l0-0.1c0.1-11.6,0.2-21.6,12.6-22c0,0,4.6,0,9.8,0c4.6,0,9.6,0,12.2,0c11.6,0.1,15.3,5.8,15.3,23.5
	c0,3.6,0,8.7,0,14.4c0,15.4-0.1,34.5,0,43.9c0.2,24.4-4.2,28.7-17.6,28.9C357.9,234.3,357.3,234.3,356.6,234.3z M351.4,139.5
	c-1.3,0-2.5,0.5-3.4,1.5c-1,1-2.1,2.9-2,6.4c0.1,5.1,0,24.3-0.2,57.2c0,1.7,0,2.7,0,2.8c0,3.3,1,5.3,1.9,6.4c1,1.3,2.4,2,3.8,2h0
	c1.1,0,2.2-0.5,3.1-1.4c1.6-1.6,2.4-4.3,2.4-7.8c-0.1-6.9,0.1-40.9,0.1-53.6c0-3.1,0-5.2,0-5.5c0-2.5-0.6-4.6-1.9-6
	C354.2,140.2,352.8,139.5,351.4,139.5z M146.5,140.3l-30,0.2l0,29l23.9,0l-15.2,17.2l-8.7,0.1l0,47.5H95.4l0.2-87.2
	c0-0.7,0-1.5,0-2.2c-0.1-6.8-0.1-14.6,4.2-18.4c4.5-3.9,11.8-3.9,17.7-3.9l86.4,0c2,0,4.5,0,7.2,0c15.7,0,29.1,0.2,33.9,3.1
	c9.4,5.5,11.3,22.5,9.1,36c-2.3,14.1-9.3,20.2-19.1,24.5c3.5,7.7,19.7,43.6,20.8,46.1l0.9,2.1h-25.6l-0.4-0.8
	c-1.9-3.8-8.4-21.3-12.3-31.7l0.1,32.6h-22l0-93.7l-29,0l0,29l23.1,0l-14,17.1l-8.4,0l0.3,29.7l22.2,0.1l-14,17.7l-30.2,0
	L146.5,140.3z M218.3,170c2.4-0.3,7.3-1,11.5-2.8c5.6-2.4,7.8-10,7.1-16.2c-0.5-4.1-2.4-8.8-6.6-9.6c-3.6-0.7-7.8-0.8-10.7-0.8
	c-0.5,0-1,0-1.4,0V170z M44.5,109.2c2-3,13.6-21.9,14.1-22.7l1.2-2l2.2,3.1c4.1,5.9,4.6,6.6,11.7,6.6l0.6,0c2.6,0,5,0.1,7.3,0.1
	c2.1,0.1,4,0.1,5.8,0.1c3.8,0,7.9-0.2,9.3-2c0.7-1,0.7-2.6,0-4.9c-2.8-9.1-18.1-32.9-24.1-40.9c-1-1.3-6.6-9.3-10.3-14.5
	c-1.5-2.2-2.7-3.9-3-4.3l-1.7-2.4l17.8,0.1c0.8,0,1.4,0,2,0c0.5,0,0.9,0,1.2,0c0.3,0,0.6,0,0.8,0c2.7,0,3.3,0.8,5.1,3.3
	c0.4,0.5,0.8,1.1,1.3,1.8c11.6,15.7,21.6,29.3,31.6,53.6c4.2,10.2,2.5,15.4-0.1,23.4c-0.3,0.9-0.6,1.8-0.9,2.8l-0.3,1l-73,0.1
	L44.5,109.2z M235.7,18.6l-28,0v28.7l22.2,0L215.8,65l-8.1,0l0,29.6h21.5l-14,16.9H185l-0.3-93h-21.3l0.3,93h-21l0-93h-6.3
	l-18.9,21.2l-14.2-21.2H55.4l11.5-17h44.9l6.1,8.2l8.9-8.2h184l0,93.1l34.1-0.1l-14.2,17l-43.4,0l-0.5-92.9l-28.2,0l0.2,28.8h22.1
	l-13.4,17.6h-8.7l0,29.6h22.5l-14,16.9l-32.3,0C234.9,111.5,235.7,18.6,235.7,18.6z"/>
<path class="st1" d="M309.2,3l0,93.1l32.4-0.1l-11.7,14l-41.2,0l-0.5-92.9l-31.2,0l0.2,31.8h20.6l-11.1,14.6h-9.5l0,32.6H278
	L266.5,110l-30.1,0l0.7-92.9l-31,0v31.7l20.6,0L215,63.5l-8.9,0l0,32.6H226L214.6,110h-28.1l-0.3-93h-24.3l0.3,93h-18l0-93h-8.5
	l-18,20.3L104.1,17H58.2l9.4-14H111l6.6,8.9l9.7-8.9L309.2,3 M60.5,26.9L75.3,27c0.8,0,1.4,0,2,0c0.8,0,1.5,0,2,0
	c2.4,0,2.1,0.4,5.2,4.5c12.3,16.6,21.7,29.6,31.5,53.3c4.5,10.8,2,15.6-1.1,25.1L45.8,110c2-3.1,13.5-21.7,14.1-22.8
	c5,7.1,5.4,8.5,13.8,8.5c0.2,0,0.4,0,0.6,0c4.8,0,9.3,0.3,13.1,0.3c8.2,0,13.1-1.2,10.7-8.8c-2.9-9.3-18.3-33.3-24.3-41.4
	C72.5,43.9,61.6,28.4,60.5,26.9 M117.5,124c0.3,0,0.7,0,1,0h85.4c10.5,0.2,34.3-0.6,40.3,2.9c8.6,5,10.5,21.2,8.4,34.4
	c-2.2,13.8-8.9,19.5-19.6,23.9c0,0,20.3,44.7,21.4,47.5H232c-2.7-5.4-15.2-39.5-15.2-39.5l0.1,39.5H198l0-93.7l-32,0l0,32l21.5,0
	l-11.5,14.1l-9.2,0l0.3,32.7l20.6,0.1L176,232.7l-28,0l0-94l-33,0.2l0,32l22,0l-12.6,14.2l-9.5,0.1l0,47.5H96.9l0.2-85.7
	c0-6.7-0.6-15.7,3.7-19.5C104.7,124.1,111.3,124,117.5,124 M216.8,171.6c0,0,7.4-0.3,13.6-3.1c10.8-4.7,10.7-26.6,0.2-28.7
	c-3.7-0.7-8.1-0.9-10.9-0.9c-1.8,0-2.9,0.1-2.9,0.1V171.6 M317,124l0.6,91.3l-9.8,32.1l-30.4-77.7l0.3,63H263l0-107.7h17.7
	c0,0,17.5,58,18.3,58.7V124L317,124 M86.2,124l0.6,91.3L77,247.4l-30.4-77.7l0.3,63H32.2l0-107.7h17.7c0,0,17.5,58,18.3,58.7V124
	L86.2,124 M348.7,125c4.6,0,9.7,0,12.3,0c9.5,0.1,13.8,3.7,13.8,22c0,13-0.1,45.3,0,58.3c0.2,24.1-4.1,27.2-16.2,27.4
	c-0.6,0-1.3,0-1.9,0c-2.8,0-5.9-0.1-9.4-0.1c-1,0-2,0-3,0c-0.2,0-0.4,0-0.6,0c-7.7,0-17-2.7-15.7-27.1c0.7-13,0-47,0.1-60
	c0.1-11.9,0.1-20.3,11.1-20.6C339.1,125,343.6,125,348.7,125 M351.5,217.2c3.5,0,7-3.4,7-10.7c-0.1-8.5,0.1-57.4,0.1-59.1
	c0-6.2-3.6-9.4-7.1-9.4s-7,3.1-6.9,9.4c0.2,8.9-0.2,59.1-0.2,59.9C344.3,213.7,347.9,217.2,351.5,217.2 M21.6,125l0.2,90.2
	l-9.6,34.2l-9.1-16.6L3,125L21.6,125 M312.2,0H126.1l-0.9,0.8L118,7.5l-4.7-6.3L112.5,0H66l-0.9,1.3l-9.4,14L52.5,20h49.9l12.7,19
	l2.2,3.2l2.6-2.9L137.1,20h4.1l0,90l0,3h24l0-3l-0.3-90h18.3l0.3,90l0,3H216l0.9-1.1L228.3,98l4.1-4.9h-23.2l0-26.6l5.8,0l1.4,0
	l0.9-1.1l11.7-14.7l3.9-4.9l-6.2,0l-17.6,0V20.1l25,0l-0.7,89.9l0,3l3,0l30.1,0l1.4,0l0.9-1.1L280.3,98l4.1-4.9h-24.1l0-26.6h8
	l0.9-1.2l11.1-14.6l3.7-4.8h-23.7L260,20.1l25.2,0l0.4,90l0,3l3,0l41.2,0l1.4,0l0.9-1.1l11.7-14L348,93l-6.5,0l-29.4,0.1l0-90.1V0
	L312.2,0L312.2,0z M54.7,23.9l3.4,4.8c0.3,0.5,1.5,2.1,3.1,4.3c3.7,5.3,9.3,13.2,10.3,14.5c5.9,8,21.1,31.6,23.9,40.5
	c0.5,1.7,0.6,3,0.2,3.5c-0.7,0.9-3.4,1.4-8,1.4c-1.8,0-3.7-0.1-5.8-0.1c-2.3-0.1-4.8-0.1-7.3-0.1l-0.6,0c-6.3,0-6.4-0.2-10.5-6
	c-0.3-0.4-0.6-0.8-0.9-1.2l-2.6-3.7l-2.4,3.9c-0.5,0.9-12.1,19.6-14.1,22.7l-3.1,4.7l5.6,0l69.1-0.1l2.2,0l0.7-2.1
	c0.3-1,0.6-1.9,0.9-2.8c2.6-8,4.5-13.7,0.1-24.4c-10.1-24.5-20.2-38.1-31.8-53.9c-0.5-0.7-1-1.3-1.3-1.8c-1.9-2.6-2.8-3.9-6.3-3.9
	c-0.2,0-0.5,0-0.8,0c-0.3,0-0.7,0-1.2,0c-0.6,0-1.2,0-1.9,0l0,0l0,0l-14.8-0.1L54.7,23.9L54.7,23.9L54.7,23.9z M117.5,121
	c-6.1,0-13.8,0-18.7,4.3c-4.9,4.2-4.8,12.7-4.7,19.5c0,0.8,0,1.5,0,2.2l-0.2,85.7l0,3H118l0-3l0-44.5l6.5,0l1.3,0l0.9-1l12.6-14.2
	l4.4-5l-6.7,0l-19,0l0-26l27-0.2l0,90.9l0,3l3,0l28,0l1.5,0l0.9-1.1l11.6-14.7l3.8-4.8l-6.1,0l-17.6-0.1l-0.2-26.7l6.2,0l1.4,0
	l0.9-1.1l11.5-14.1l4-4.9l-6.3,0l-18.5,0l0-26l26,0l0,90.7l0,3h25l0-3l0-22.7c3.7,9.8,8,21,9.4,24l0.8,1.7H259l-1.8-4.2
	c-1-2.4-15.7-34.9-20.2-44.8c9.6-4.4,16.3-10.8,18.6-25c2.3-14,0.1-31.7-9.9-37.5c-5.2-3-18.8-3.3-34.7-3.3c-2.8,0-5.2,0-7.1,0l0,0
	h-85.4l-0.3,0L117.5,121L117.5,121L117.5,121z M219.8,168.3V142c2.8,0,6.9,0.1,10.3,0.8c3.4,0.7,5,4.7,5.4,8.3
	c0.6,5.5-1.4,12.6-6.2,14.7C226,167.2,222.4,168,219.8,168.3L219.8,168.3L219.8,168.3z M320,121h-24v43.8
	c-3.8-12.3-8.8-28.7-12.4-40.7l-0.6-2.1H260v3l0,107.7v3h20.7l0-3l-0.2-46.9l24.5,62.7l3.1,8l2.5-8.3l9.8-32.1l0.1-0.4l0-0.5
	L320,124L320,121L320,121L320,121z M89.2,121h-24v43.8c-3.8-12.3-8.8-28.7-12.4-40.7l-0.6-2.1H29.2v3l0,107.7v3h20.7l0-3l-0.2-46.9
	l24.5,62.7l3.1,8l2.5-8.3l9.8-32.1l0.1-0.4l0-0.5L89.2,124L89.2,121L89.2,121L89.2,121z M348.7,122c-5.1,0-9.6,0-9.6,0l0,0l0,0
	c-6.3,0.2-10.4,2.7-12.3,7.9c-1.6,4.1-1.6,9.4-1.7,15.6l0,0.1c0,4.4,0,11,0.1,18.7c0.1,14.5,0.3,32.6-0.2,41.2
	c-0.7,12.3,1.2,20.7,5.8,25.5c4.1,4.3,9.3,4.8,12.9,4.8c0.2,0,0.4,0,0.6,0c1,0,2,0,3,0c1.9,0,3.6,0,5.3,0c1.5,0,2.9,0,4.2,0
	c0.7,0,1.3,0,2,0c5.4-0.1,11.5-0.7,15.1-6.1c2.9-4.4,4.1-11.4,4-24.3c-0.1-9.4,0-28.5,0-43.8c0-5.8,0-10.9,0-14.5
	c0-18.4-4.4-24.9-16.7-25C358.8,122,354.6,122,348.7,122L348.7,122L348.7,122z M351.5,214.2c-0.9,0-1.9-0.5-2.6-1.4
	c-1-1.3-1.6-3.2-1.6-5.4c0-0.1,0-1.1,0-2.7c0.2-32.9,0.3-52.2,0.2-57.3c0-2.3,0.5-4.2,1.6-5.3c0.7-0.7,1.5-1,2.3-1
	c1,0,1.9,0.5,2.6,1.3c0.7,0.8,1.5,2.3,1.5,5.1c0,0.3,0,2.2,0,5.2c0,12.8-0.1,46.9-0.1,53.9c0,4.1-1.2,6-1.9,6.7
	C352.9,213.8,352.2,214.2,351.5,214.2L351.5,214.2L351.5,214.2z M24.6,122H0l0,3l0.1,107.7l0,0.8l0.4,0.7l9.1,16.6l3.5,6.4l2-7.1
	l9.6-34.2l0.1-0.4l0-0.4L24.6,125L24.6,122L24.6,122L24.6,122z"/>
<path class="st2" d="M21.8,215.2L21.6,125H3l0.1,107.7l9.1,16.6L21.8,215.2L21.8,215.2z M74.3,95.7c-9,0.1-9.3-1.2-14.4-8.5l0,0
	c-0.7,1.1-12.1,19.7-14.1,22.8l69.1-0.1c3-9.5,5.5-14.3,1.1-25.1c-9.8-23.7-19.2-36.7-31.5-53.3c-4.2-5.7-2.2-4.3-9.2-4.6l-14.8-0.1
	c1.1,1.5,12,17,13.3,18.8c6,8.1,21.4,32.1,24.3,41.4C101.6,98.3,89.5,95.7,74.3,95.7L74.3,95.7L74.3,95.7z M339.1,125
	c-11,0.3-11,8.8-11.1,20.6c-0.1,13,0.6,47-0.1,60c-1.3,25,8.5,27.2,16.3,27.1c5.7-0.1,10.4,0.1,14.4,0c12.1-0.2,16.4-3.4,16.2-27.4
	c-0.1-13,0-45.3,0-58.3c0-18.3-4.2-22-13.8-22C355.4,125,339.1,125,339.1,125L339.1,125z M344.5,147.4c0.2,8.9-0.2,59.1-0.2,59.9
	c0,12.7,14.3,13.9,14.2-0.8c-0.1-8.5,0.1-57.4,0.1-59.1C358.5,134.9,344.3,134.9,344.5,147.4L344.5,147.4z M46.9,232.7l-0.3-63
	L77,247.4l9.8-32.1L86.2,124h-18v59.7C67.4,183,49.9,125,49.9,125H32.2l0,107.7H46.9z M277.7,232.7l-0.3-63l30.4,77.7l9.8-32.1
	L317,124h-18v59.7c-0.8-0.7-18.3-58.7-18.3-58.7H263l0,107.7H277.7L277.7,232.7z M96.9,232.7H115l0-47.5l9.5-0.1L137,171l-22,0l0-32
	l33-0.2l0,94l28,0l11.6-14.7l-20.6-0.1l-0.3-32.7l9.2,0l11.5-14.1l-21.5,0l0-32l32,0l0,93.7h18.9l-0.1-39.5l0,0
	c0,0,12.5,34,15.2,39.5h22.5c-1.2-2.8-21.4-47.5-21.4-47.5c10.7-4.4,17.4-10.2,19.6-23.9c2.1-13.2,0.2-29.4-8.4-34.4
	c-6-3.5-29.8-2.7-40.3-2.9h-85.4c-6.5,0-13.6-0.1-17.8,3.5c-4.3,3.7-3.7,12.8-3.7,19.5L96.9,232.7L96.9,232.7z M230.7,139.9
	c10.5,2.1,10.6,23.9-0.2,28.7c-6.2,2.7-13.6,3.1-13.6,3.1v-32.6C216.8,139.1,224.6,138.7,230.7,139.9L230.7,139.9z M104.1,17
	l13.6,20.3l18-20.3h8.5l0,93h18l-0.3-93h24.3l0.3,93h28.1L226,96.1h-19.8l0-32.6l8.9,0l11.7-14.7l-20.6,0V17.1l31,0l-0.7,92.9
	l30.1,0L278,96.1h-20.8l0-32.6h9.5l11.1-14.6h-20.6l-0.2-31.8l31.2,0l0.5,92.9l41.2,0l11.7-14l-32.4,0.1l0-93.1H127.3l-9.7,8.9
	L111,3H67.6l-9.4,14L104.1,17L104.1,17z"/>
</svg>
